<?xml version="1.0" encoding="utf-8"?>
<!-- Generator: Adobe Illustrator 19.1.0, SVG Export Plug-In . SVG Version: 6.00 Build 0)  -->
<svg version="1.1" id="Layer_1" xmlns="http://www.w3.org/2000/svg" xmlns:xlink="http://www.w3.org/1999/xlink" x="0px" y="0px"
   viewBox="0 0 672 250" style="enable-background:new 0 0 672 250;" xml:space="preserve">
<style type="text/css">
  .st0{fill:url(#symbol_1_);}
  .st1{fill:url(#SVGID_1_);}
  .st2{fill:url(#SVGID_2_);}
  .st3{fill:url(#SVGID_3_);}
  .st4{fill:url(#SVGID_4_);}
  .st5{fill:url(#SVGID_5_);}
  .st6{fill:url(#SVGID_6_);}
  .st7{fill:url(#SVGID_7_);}
</style>
<g id="influxdb_logo">
  <linearGradient id="symbol_1_" gradientUnits="userSpaceOnUse" x1="205.3238" y1="125" x2="483.0884" y2="125">
    <stop  offset="0" style="stop-color:#4591ED"/>
    <stop  offset="1" style="stop-color:#00C9FF"/>
  </linearGradient>
  <path id="symbol_2_" class="st0" d="M242.5,133.3l-7.6-33.2c-0.4-1.8-2.1-3.6-3.9-4.1l-34.9-10.7c-0.5-0.1-1-0.2-1.5-0.2
    c-1.5,0-3.1,0.6-4,1.5l-25,23.2c-1.3,1.2-2.1,3.6-1.7,5.4l8.1,35.5c0.4,1.8,2.1,3.6,3.9,4.1l32.6,10c0.5,0.1,1,0.2,1.5,0.2
    c1.5,0,3.1-0.6,4-1.5l26.7-24.8C242.2,137.5,242.9,135.1,242.5,133.3z M199.7,93.1l23.9,7.3c0.9,0.3,0.9,0.7,0,0.9l-12.6,2.9
    c-1,0.2-2.3-0.2-2.9-0.9l-8.8-9.5C198.6,93.2,198.8,92.9,199.7,93.1z M214.6,136c0.2,1-0.4,1.5-1.3,1.2l-25.8-7.9
    c-0.9-0.3-1.1-1.1-0.4-1.7l19.8-18.4c0.7-0.7,1.5-0.4,1.7,0.5L214.6,136z M172.1,112.6l21-19.5c0.7-0.7,1.8-0.6,2.5,0.1l10.5,11.3
    c0.7,0.7,0.6,1.8-0.1,2.5l-21,19.5c-0.7,0.7-1.8,0.6-2.5-0.1L172,115.1C171.4,114.4,171.4,113.3,172.1,112.6z M177.2,143.6
    l-5.6-24.3c-0.2-1,0.1-1.1,0.8-0.4l8.8,9.5c0.7,0.7,1,2.1,0.7,3l-3.8,12.3C177.9,144.5,177.4,144.5,177.2,143.6z M207.9,157.7
    l-27.3-8.4c-0.9-0.3-1.5-1.3-1.2-2.2l4.5-14.8c0.3-0.9,1.3-1.5,2.2-1.2l27.3,8.4c0.9,0.3,1.5,1.3,1.2,2.2l-4.5,14.8
    C209.8,157.5,208.8,158,207.9,157.7z M232.2,137.8l-18.3,17c-0.7,0.7-1.1,0.4-0.8-0.5l3.8-12.3c0.3-0.9,1.3-1.9,2.3-2.1l12.6-2.9
    C232.7,136.8,232.9,137.2,232.2,137.8z M234.2,134.2l-15.1,3.4c-1,0.2-1.9-0.4-2.1-1.3l-6.4-27.9c-0.2-1,0.4-1.9,1.3-2.1l15.1-3.4
    c1-0.2,1.9,0.4,2.1,1.3l6.4,27.9C235.7,133,235.1,134,234.2,134.2z"/>
</g>
</svg>
