<?xml version="1.0" encoding="utf-8"?>
<!-- Generator: Adobe Illustrator 19.2.1, SVG Export Plug-In . SVG Version: 6.00 Build 0)  -->
<svg version="1.1" xmlns="http://www.w3.org/2000/svg" xmlns:xlink="http://www.w3.org/1999/xlink" x="0px" y="0px"
	 viewBox="0 0 84.2 84.5" style="enable-background:new 0 0 84.2 84.5;" xml:space="preserve">
<style type="text/css">
	.st0{fill:#FFFFFF;}
	.st1{fill:none;}
	.st2{fill:url(#SVGID_1_);}
	.st3{fill:url(#SVGID_2_);}
</style>
<g id="Layer_2">
</g>
<g id="Layer_1">
	<path class="st0" d="M76.3,35.9"/>
	<path class="st0" d="M49.4,8"/>
	<g>
		<path class="st1" d="M17.4,47.9l-8.8-9.5c-0.7-0.7-1-0.6-0.8,0.4l5.6,24.3c0.2,0.9,0.7,0.9,0.9,0.1l3.8-12.3
			C18.4,50,18.1,48.6,17.4,47.9z"/>
		<path class="st1" d="M18.7,45.9c0.7,0.7,1.8,0.8,2.5,0.1l21-19.5c0.7-0.7,0.8-1.8,0.1-2.5L31.8,12.7c-0.7-0.7-1.8-0.8-2.5-0.1
			l-21,19.5c-0.7,0.7-0.7,1.8-0.1,2.5L18.7,45.9z"/>
		<path class="st1" d="M23.7,48.8l25.8,7.9c0.9,0.3,1.5-0.2,1.3-1.2l-6-26.3c-0.2-0.9-1-1.2-1.7-0.5L23.3,47.1
			C22.6,47.7,22.8,48.5,23.7,48.8z"/>
		<path class="st1" d="M35.9,12.6c-0.9-0.2-1.1,0.1-0.4,0.7l8.8,9.5c0.6,0.7,1.9,1.1,2.9,0.9l1.8-0.4c-0.8-2.2-1.3-4.6-1.3-7.1
			L35.9,12.6z"/>
		<path class="st1" d="M49.9,25.4l-1.8,0.4c-0.9,0.2-1.5,1.1-1.3,2.1l6.4,27.9c0.2,0.9,1.1,1.5,2.1,1.3l15.1-3.4
			c0.9-0.2,1.5-1.2,1.3-2.1l-3.3-14.4C60.3,37.1,53.3,32.3,49.9,25.4z"/>
		<path class="st1" d="M68,56.5l-12.6,2.9c-1,0.2-2,1.2-2.3,2.1l-3.8,12.3c-0.3,0.9,0.1,1.2,0.8,0.5l18.3-17
			C69.1,56.7,68.9,56.3,68,56.5z"/>
		<path class="st1" d="M49.6,59l-27.3-8.4c-0.9-0.3-1.9,0.3-2.2,1.2l-4.5,14.8c-0.3,0.9,0.3,1.9,1.2,2.2l27.3,8.4
			C45,77.5,46,77,46.3,76l4.5-14.8C51.1,60.3,50.5,59.3,49.6,59z"/>
		
			<linearGradient id="SVGID_1_" gradientUnits="userSpaceOnUse" x1="41.5273" y1="46.4682" x2="319.2919" y2="46.4682" gradientTransform="matrix(1 0 0 -1 0 91.0365)">
			<stop  offset="0" style="stop-color:#4591ED"/>
			<stop  offset="1" style="stop-color:#00C9FF"/>
		</linearGradient>
		<path class="st2" d="M78.7,52.8l-3.8-16.5c-1.9,0.6-4,0.9-6.1,0.9c-0.1,0-0.3,0-0.4,0l3.3,14.4c0.2,0.9-0.4,1.9-1.3,2.1l-15.1,3.4
			c-1,0.2-1.9-0.4-2.1-1.3l-6.4-27.9c-0.2-1,0.4-1.9,1.3-2.1l1.8-0.4c-0.3-0.7-0.6-1.4-0.9-2.1l-1.8,0.4c-1,0.2-2.3-0.2-2.9-0.9
			l-8.8-9.5c-0.7-0.6-0.5-0.9,0.4-0.7l11.8,3.6c0,0,0,0,0-0.1c0-2.2,0.3-4.3,1-6.3l-16.4-5c-0.5-0.1-1-0.2-1.5-0.2
			c-1.5,0-3.1,0.6-4,1.5l-25,23.2c-1.3,1.2-2.1,3.6-1.7,5.4l8.1,35.5c0.4,1.8,2.1,3.6,3.9,4.1l32.6,10c0.5,0.1,1,0.2,1.5,0.2
			c1.5,0,3.1-0.6,4-1.5l26.7-24.8C78.4,57,79.1,54.6,78.7,52.8z M44.8,29.2l6,26.3c0.2,1-0.4,1.5-1.3,1.2l-25.8-7.9
			c-0.9-0.3-1.1-1.1-0.4-1.7l19.8-18.4C43.8,28,44.6,28.3,44.8,29.2z M8.3,32.1l21-19.5c0.7-0.7,1.8-0.6,2.5,0.1L42.3,24
			c0.7,0.7,0.6,1.8-0.1,2.5L21.2,46c-0.7,0.7-1.8,0.6-2.5-0.1L8.2,34.6C7.6,33.9,7.6,32.8,8.3,32.1z M13.4,63.1L7.8,38.8
			c-0.2-1,0.1-1.1,0.8-0.4l8.8,9.5c0.7,0.7,1,2.1,0.7,3l-3.8,12.3C14.1,64,13.6,64,13.4,63.1z M44.1,77.2l-27.3-8.4
			c-0.9-0.3-1.5-1.3-1.2-2.2l4.5-14.8c0.3-0.9,1.3-1.5,2.2-1.2L49.6,59c0.9,0.3,1.5,1.3,1.2,2.2L46.3,76C46,77,45,77.5,44.1,77.2z
			 M68.4,57.3l-18.3,17c-0.7,0.7-1.1,0.4-0.8-0.5l3.8-12.3c0.3-0.9,1.3-1.9,2.3-2.1L68,56.5C68.9,56.3,69.1,56.7,68.4,57.3z"/>
	</g>
	<g>
		<g>
			<linearGradient id="SVGID_2_" gradientUnits="userSpaceOnUse" x1="53.4772" y1="16.1808" x2="84.1716" y2="16.1808">
				<stop  offset="0" style="stop-color:#4591ED"/>
				<stop  offset="1" style="stop-color:#4293EE"/>
			</linearGradient>
			<path class="st3" d="M53.5,21.3l2.6-1.5c-0.3-1.2-0.5-2.4-0.5-3.7c0-1.3,0.2-2.5,0.5-3.6L53.5,11c0.7-2.1,1.9-4,3.3-5.7l2.5,1.4
				c1.7-1.8,3.8-3,6.2-3.7V0.3C66.6,0.1,67.7,0,68.8,0c1.1,0,2.2,0.1,3.3,0.3v2.8c2.4,0.6,4.6,1.9,6.2,3.7l2.5-1.5
				c1.5,1.6,2.6,3.6,3.3,5.7l-2.6,1.5c0.3,1.1,0.5,2.4,0.5,3.6c0,1.3-0.2,2.5-0.5,3.7l2.6,1.5c-0.7,2.1-1.9,4.1-3.3,5.7l-2.6-1.5
				c-1.7,1.7-3.8,3-6.2,3.6V32c-1.1,0.2-2.1,0.3-3.3,0.3c-1.1,0-2.2-0.1-3.3-0.3v-2.9c-2.4-0.6-4.5-1.9-6.2-3.6L56.8,27
				C55.3,25.4,54.2,23.4,53.5,21.3z M68.8,21.6c2.9,0,5.3-2.4,5.3-5.4s-2.4-5.4-5.3-5.4c-2.9,0-5.3,2.4-5.3,5.4S65.9,21.6,68.8,21.6
				z"/>
		</g>
	</g>
</g>
</svg>
